<svg height="512pt" viewBox="0 -45 512.00103 512" width="512pt" xmlns="http://www.w3.org/2000/svg"><path d="m465.171875 0h-350.992187l-81.933594 121.949219h67.351562c15.832032 0 29.285156-11.496094 31.832032-27.117188 2.074218-12.734375 9.804687-25.050781 32.101562-24.546875h44.777344c18.277344 0 33.097656 14.820313 33.097656 33.097656v205.675782s-3.507812 44.949218-54.632812 55.578125c-13.53125 2.816406-23.246094 14.726562-23.246094 28.546875 0 16.105468 13.058594 29.160156 29.160156 29.160156h193.972656c16.105469 0 29.160156-13.054688 29.160156-29.160156 0-13.820313-9.714843-25.730469-23.246093-28.546875-51.125-10.628907-54.632813-55.578125-54.632813-55.578125v-205.675782c0-18.277343 14.820313-33.097656 33.097656-33.097656l41.359376 51.664063h67.351562c17.808594 0 32.246094-14.4375 32.246094-32.25v-42.871094c.003906-25.863281-20.960938-46.828125-46.824219-46.828125zm0 0" fill="#ff5f7f"/><g fill="#f6375d"><path d="m386.703125 89.851562 25.699219 32.097657h67.351562c17.757813 0 32.164063-14.359375 32.246094-32.097657zm0 0"/><path d="m186.773438 364.640625h205.804687c-51.125-10.632813-54.632813-55.582031-54.632813-55.582031h-96.539062s-3.507812 44.949218-54.632812 55.582031zm0 0"/><path d="m114.179688 0-81.933594 121.949219h67.351562c15.832032 0 29.285156-11.496094 31.832032-27.117188 2.074218-12.734375 9.804687-25.050781 32.101562-24.546875h44.777344c18.277344 0 33.097656 14.820313 33.097656 33.097656v18.566407h96.535156v-18.566407c0-18.277343 14.820313-33.097656 33.097656-33.097656l41.359376 51.664063-25.101563-121.949219zm0 0"/></g><path d="m0 46.828125v42.871094c0 17.8125 14.4375 32.25 32.246094 32.25 15.832031 0 29.285156-11.496094 31.832031-27.117188 2.074219-12.734375 9.804687-25.050781 32.101563-24.546875h44.777343c18.277344 0 33.097657 14.820313 33.097657 33.097656v205.675782s-3.507813 44.949218-54.632813 55.578125c-13.53125 2.816406-23.246094 14.726562-23.246094 28.546875 0 16.105468 13.058594 29.160156 29.160157 29.160156h193.972656c16.105468 0 29.160156-13.054688 29.160156-29.160156 0-13.820313-9.714844-25.730469-23.246094-28.546875-51.125-10.628907-54.632812-55.578125-54.632812-55.578125v-205.675782c0-18.277343 14.820312-33.097656 33.097656-33.097656h44.78125c22.296875-.503906 30.027344 11.8125 32.101562 24.546875 2.546876 15.621094 16 27.117188 31.828126 27.117188 17.808593 0 32.25-14.4375 32.25-32.25v-42.871094c0-25.863281-20.96875-46.828125-46.828126-46.828125h-350.992187c-25.863281 0-46.828125 20.964844-46.828125 46.828125zm0 0" fill="#ff899f"/></svg>