<?xml version="1.0" encoding="utf-8"?>
<!-- Generator: Adobe Illustrator 22.0.1, SVG Export Plug-In . SVG Version: 6.00 Build 0)  -->
<svg version="1.1" id="Calque_2_1_" xmlns="http://www.w3.org/2000/svg" xmlns:xlink="http://www.w3.org/1999/xlink" x="0px"
	 y="0px" viewBox="0 0 500 500" style="enable-background:new 0 0 500 500;" xml:space="preserve">
<style type="text/css">
	.st0{fill:#FFFFFF;}
</style>
<g id="tc">
	<polygon id="t" class="st0" points="192.2,364.9 174.8,354.9 174.8,197.3 145,214.7 145,193.6 192.2,167.5 	"/>
	<path class="st0" d="M249.2,103L145,160.1V180l104.2-57.1"/>
	<path class="st0" d="M205.8,160.1l-0.6,211.6l17.4,9.9v-211l26.1-12.4l0,0c0.2-0.1,0.5-0.1,0.7-0.2c0-5.7,0.1-13.4,0.1-19.2"/>
</g>
<g id="tc_1_">
	<polygon id="t_1_" class="st0" points="316.3,364.9 333.7,354.9 333.7,197.3 363.5,214.7 363.5,193.6 316.3,167.5 	"/>
	<path class="st0" d="M259.2,103l104.2,57.1V180l-104.2-57.1"/>
	<path class="st0" d="M302.6,160.1l0.6,211.6l-17.4,9.9v-211l-26.1-12.4l0,0c-0.2-0.1-0.5-0.1-0.7-0.2c0-5.7-0.1-13.4-0.1-19.2"/>
</g>
</svg>
