<svg height="512pt" viewBox="-15 0 512 512" width="512pt" xmlns="http://www.w3.org/2000/svg"><path d="m318.867188 112.898438c-10.8125-25.078126-29.386719-46.523438-53-61.214844-10.414063-30.148438-38.699219-51.683594-70.867188-51.683594-32.195312 0-60.496094 21.582031-70.898438 51.757812-1.507812.9375-2.972656 1.859376-4.363281 2.796876-21.59375 14.488281-38.320312 34.601562-48.589843 58.332031-25.839844 19.816406-41.148438 50.5625-41.148438 83.113281h330c0-32.550781-15.292969-63.28125-41.132812-83.101562zm0 0" fill="#ffe079"/><g fill="#ffd13a"><path d="m360 196c0-32.550781-15.292969-63.28125-41.132812-83.101562-10.8125-25.078126-29.386719-46.523438-53-61.214844-10.414063-30.148438-38.699219-51.683594-70.867188-51.683594v196zm0 0"/><path d="m195 112.210938-40.605469-40.605469 21.210938-21.210938 19.394531 19.394531 19.394531-19.394531 21.210938 21.210938zm0 0"/><path d="m135 172.210938-40.605469-40.605469 21.210938-21.210938 19.394531 19.394531 19.394531-19.394531 21.210938 21.210938zm0 0"/></g><path d="m255 172.210938-40.605469-40.605469 21.210938-21.210938 19.394531 19.394531 19.394531-19.394531 21.210938 21.210938zm0 0" fill="#ffae3a"/><path d="m235.605469 71.605469-21.210938-21.210938-19.394531 19.394531v42.421876zm0 0" fill="#ffae3a"/><path d="m420 316h-30v-75h90v30h-60zm0 0" fill="#ff4576"/><path d="m432.210938 451h-84.394532c-14.660156 0-27.175781-10.597656-29.589844-25.054688l-20.878906-124.945312h185.375l-20.925781 124.953125c-2.421875 14.457031-14.933594 25.046875-29.585937 25.046875zm0 0" fill="#faecd8"/><path d="m447.730469 512h-115.460938l-14.855469-91h145.167969zm0 0" fill="#766e6e"/><path d="m133.5 181-13.5 165 46.5 166h56.996094l46.503906-166-13.5-165zm0 0" fill="#ffd13a"/><path d="m195 361c-50.464844 0-90-26.351562-90-60s39.535156-60 90-60 90 26.351562 90 60-39.535156 60-90 60zm0 0" fill="#ff6c83"/><path d="m132.273438 196-12.273438 150 46.5 166h56.996094l46.503906-166-12.273438-150zm0 0" fill="#ffe079"/><path d="m195 196v316h28.496094l46.503906-166-12.273438-150zm0 0" fill="#ffae3a"/><path d="m360.230469 196h-105.226563l-31.507812 316h73.808594zm0 0" fill="#ff4576"/><path d="m29.695312 196 63.015626 316h73.789062l-31.503906-316zm0 0" fill="#ff637b"/><path d="m195 181h195v30h-195zm0 0" fill="#ffd13a"/><path d="m195 361c-50.464844 0-90-26.351562-90-60s39.535156-60 90-60 90 26.351562 90 60-39.535156 60-90 60zm0 0" fill="#faecd8"/><path d="m285 301c0-33.648438-39.535156-60-90-60v120c50.464844 0 90-26.351562 90-60zm0 0" fill="#f4d7af"/><path d="m0 181h390v30h-390zm0 0" fill="#faecd8"/><path d="m195 181h195v30h-195zm0 0" fill="#f4d7af"/><path d="m390 451h42.210938c14.652343 0 27.164062-10.589844 29.585937-25.046875l20.925781-124.953125h-92.722656zm0 0" fill="#f4d7af"/><path d="m390 512h57.730469l14.851562-91h-72.582031zm0 0" fill="#5b5555"/></svg>